<?xml version="1.0" standalone="no"?>
<!DOCTYPE svg PUBLIC "-//W3C//DTD SVG 20010904//EN" "http://www.w3.org/TR/2001/REC-SVG-20010904/DTD/svg10.dtd">
<!-- Created using Krita: https://krita.org -->
<svg xmlns="http://www.w3.org/2000/svg" 
    xmlns:xlink="http://www.w3.org/1999/xlink"
    xmlns:krita="http://krita.org/namespaces/svg/krita"
    xmlns:sodipodi="http://sodipodi.sourceforge.net/DTD/sodipodi-0.dtd"
    width="368.64pt"
    height="368.64pt"
    viewBox="0 0 368.64 368.64">
<defs/>
<path id="shape0" transform="matrix(1.07373777950583 0 0 1.07373777950583 69.5737692085457 20.9368622074268)" fill="none" stroke="#000000" stroke-width="5.4" stroke-linecap="square" stroke-linejoin="bevel" d="M100.219 0C199.206 110.133 197.843 171.857 201.917 200.975C203.427 238.55 189.949 254.554 178.445 269.261C164.08 283.458 150.939 292.121 129.708 300.1C106.759 305.359 97.1014 306.415 68.1047 299.184C19.4033 277.943 1.66315 238.77 0.252868 202.365C-3.27178 149.013 30.0503 81.5579 100.219 0Z"/><path id="shape1" transform="matrix(1.07373777950583 0 0 1.07373777950583 195.179572785271 86.3462930174418)" fill="none" stroke="#000000" stroke-width="5.4" stroke-linecap="square" stroke-linejoin="bevel" d="M0 0C20.571 33.3095 41.1587 69.0643 58.2991 121.242C62.5043 140.343 59.4932 140.302 55.0591 146.983C45.3401 153.843 38.836 148.863 35.4041 134.355L31.1253 112.061C24.9614 81.3098 14.5863 43.956 0 0Z"/>
</svg>
