<?xml version="1.0" standalone="no"?>
<!DOCTYPE svg PUBLIC "-//W3C//DTD SVG 20010904//EN" "http://www.w3.org/TR/2001/REC-SVG-20010904/DTD/svg10.dtd">
<!-- Created using Krita: https://krita.org -->
<svg xmlns="http://www.w3.org/2000/svg" 
    xmlns:xlink="http://www.w3.org/1999/xlink"
    xmlns:krita="http://krita.org/namespaces/svg/krita"
    xmlns:sodipodi="http://sodipodi.sourceforge.net/DTD/sodipodi-0.dtd"
    width="371.52pt"
    height="371.52pt"
    viewBox="0 0 371.52 371.52">
<defs/>
<path id="shape2" transform="matrix(1.0000000295713 0 0 1.0000000295713 142.740003028565 339.071845105813)" fill="none" stroke="#000000" stroke-width="7.2" stroke-linecap="square" stroke-linejoin="bevel" d="M0 0.228162C4.86 14.8682 19.32 22.0082 50.04 22.0082C80.76 22.0082 96.3923 15.36 98.0723 0C103.035 22.3971 16.7772 37.1034 0 0.228162Z"/><path id="shape3" transform="matrix(1.0000000295713 0 0 1.0000000295713 144.84375783001 271.440019906822)" fill="none" stroke="#000000" stroke-width="7.416" stroke-linecap="square" stroke-linejoin="miter" stroke-miterlimit="2" d="M0 25.6297L94.5563 0"/><path id="shape4" transform="matrix(1.0000000295713 0 0 1.0000000295713 145.098316279623 292.320021438117)" fill="none" stroke="#000000" stroke-width="7.416" stroke-linecap="square" stroke-linejoin="miter" stroke-miterlimit="2" d="M0 24.0961L94.3017 0"/><path id="shape5" transform="matrix(1.0000000295713 0 0 1.0000000295713 142.560010455042 312.840022943009)" fill="none" stroke="#000000" stroke-width="7.416" stroke-linecap="square" stroke-linejoin="miter" stroke-miterlimit="2" d="M0 25.92L97.2 0"/><path id="shape0" transform="translate(141.78358451572, 264.995346047522)" fill="none" stroke="#000000" stroke-width="7.2" stroke-linecap="square" stroke-linejoin="bevel" d="M0.26003 75.0947C-0.0842333 26.5971 -0.0866596 2.00889 0.252752 1.33006L99.5378 0L99.5964 74.6647C98.8737 74.141 65.7616 74.2844 0.26003 75.0947Z"/><path id="shape1" transform="translate(80.1858551823581, 11.2004618800251)" fill="none" stroke="#000000" stroke-width="7.2" stroke-linecap="square" stroke-linejoin="bevel" d="M64.9125 256.086C49.2532 247.154 46.5945 235.223 43.0204 223.502C41.6522 211.344 40.9128 198.975 40.984 186.591C1.83706 150.982 1.21449 118.679 5.60503e-05 100.805C-0.0406059 65.1264 22.0487 38.086 46.2024 19.2193C69.1802 5.58233 82.2359 1.94733 111.242 0.000109342C143.108 -0.0405799 162.098 11.2817 180.364 22.6395C208.991 43.2621 219.967 70.6215 222.621 102.571C225.199 140.026 204.348 161.999 183.791 185.573C179.352 196.225 181.223 208.14 179.973 219.429C181.054 235.951 169.34 244.477 160.117 254.559C160.117 254.559 128.382 255.068 64.9125 256.086Z"/><path id="shape2" transform="translate(136.697887978454, 95.2048587777538)" fill="none" stroke="#000000" stroke-width="7.2" stroke-linecap="square" stroke-linejoin="bevel" d="M0 16.2917C25.0144 62.1153 47.7339 112.699 42.0021 170.554L75.6039 170.045C79.1939 114.222 73.4097 59.0591 122.952 0C118.2 7.80646 105.756 20.0117 108.442 23.3557L89.8591 1.01823L70.5127 49.3843L61.094 7.12764L44.5477 50.6571L26.4741 4.83661L22.9103 23.9285L18.8221 51.3151C16.05 49.9948 9.77594 38.3203 0 16.2917Z"/>
</svg>
