<?xml version="1.0" standalone="no"?>
<!DOCTYPE svg PUBLIC "-//W3C//DTD SVG 20010904//EN" "http://www.w3.org/TR/2001/REC-SVG-20010904/DTD/svg10.dtd">
<!-- Created using Krita: https://krita.org -->
<svg xmlns="http://www.w3.org/2000/svg" 
    xmlns:xlink="http://www.w3.org/1999/xlink"
    xmlns:krita="http://krita.org/namespaces/svg/krita"
    xmlns:sodipodi="http://sodipodi.sourceforge.net/DTD/sodipodi-0.dtd"
    width="368.64pt"
    height="368.64pt"
    viewBox="0 0 368.64 368.64">
<defs/>
<path id="shape0" transform="translate(60.4799976342917, 43.9199982820452)" fill="none" stroke="#000000" stroke-width="7.2" stroke-linecap="square" stroke-linejoin="bevel" d="M0.72 0L0 252L138.24 299.52L138.96 45.36C138.96 45.36 92.88 30.24 0.72 0Z"/><path id="shape1" transform="translate(94.0518116500718, 37.6200025719839)" fill="none" stroke="#000000" stroke-width="7.2" stroke-linecap="square" stroke-linejoin="bevel" d="M0.448195 0L181.89 0.818321L181.89 89.6592L177.307 89.9138L177.053 7.94596L177.307 4.6367L9.9882 4.41C1.91886 4.56515 -1.26114 3.09515 0.448195 0Z"/><path id="shape2" transform="translate(214.920004485523, 220.680004605738)" fill="none" stroke="#000000" stroke-width="7.2" stroke-linecap="square" stroke-linejoin="bevel" d="M62.64 0L63 91.8L0 92.16L0.36 86.4L57.24 86.04L57.24 0C57.24 0 59.04 0 62.64 0Z"/><path id="shape3" transform="translate(271.422939671602, 309.288508043139)" fill="none" stroke="#000000" stroke-width="7.2" stroke-linecap="square" stroke-linejoin="miter" stroke-miterlimit="2" d="M0 0.190919L3.50018 0"/><path id="shape4" transform="translate(241.920007094519, 132.390008803134)" fill="none" stroke="#000000" stroke-width="7.2" stroke-linecap="square" stroke-linejoin="bevel" d="M0 37.17L92.16 37.53L57.96 2.61L60.3 0L95.67 37.53L95.49 43.38L60.3 79.65L57.6 76.77L92.16 43.65L0 44.01C0 44.01 0 41.73 0 37.17Z"/><path id="shape5" transform="translate(59.7599961274133, 43.1999972005398)" fill="none" stroke="#000000" stroke-width="7.2" stroke-linecap="square" stroke-linejoin="bevel" d="M2.16 0L139.68 46.8L139.68 300.96L0 252C0 252 0.72 168 2.16 0Z"/><path id="shape6" transform="translate(56.2378384404739, 40.1400006320837)" fill="none" stroke="#000000" stroke-width="7.2" stroke-linecap="square" stroke-linejoin="bevel" d="M2.80216 0L146.391 48.1918L145.362 305.82L0.822161 256.68C-0.737838 253.08 -0.0778373 167.52 2.80216 0Z"/>
</svg>
