<?xml version="1.0" encoding="UTF-8" standalone="no"?>
<!DOCTYPE svg PUBLIC "-//W3C//DTD SVG 1.1//EN" "http://www.w3.org/Graphics/SVG/1.1/DTD/svg11.dtd">
<svg version="1.1" xmlns="http://www.w3.org/2000/svg" xmlns:xlink="http://www.w3.org/1999/xlink" preserveAspectRatio="xMidYMid meet" viewBox="0 0 512 512" width="512" height="512"><defs><path d="M509.68 -16.3C509.68 301.77 509.68 478.48 509.68 513.82C509.68 513.82 509.68 513.82 509.68 513.82C191.61 513.82 14.9 513.82 -20.44 513.82C-20.44 513.82 -20.44 513.82 -20.44 513.82C-20.44 195.75 -20.44 19.04 -20.44 -16.3C-20.44 -16.3 -20.44 -16.3 -20.44 -16.3C297.63 -16.3 474.34 -16.3 509.68 -16.3C509.68 -16.3 509.68 -16.3 509.68 -16.3Z" id="b2GXPY1Cv"></path><path d="M643.25 -15.27C643.25 382.32 643.25 603.21 643.25 647.38C643.25 647.38 643.25 647.38 643.25 647.38C245.66 647.38 24.77 647.38 -19.4 647.38C-19.4 647.38 -19.4 647.38 -19.4 647.38C-19.4 249.79 -19.4 28.91 -19.4 -15.27C-19.4 -15.27 -19.4 -15.27 -19.4 -15.27C378.19 -15.27 599.07 -15.27 643.25 -15.27C643.25 -15.27 643.25 -15.27 643.25 -15.27Z" id="a4yhuxjGUW"></path><path d="M250.73 10.13C225.72 10.02 212.18 23.26 210.14 49.85C210.1 81.51 209.77 334.79 209.73 366.44C187.74 382.65 176.74 403.71 176.74 429.61C176.74 455.49 188 475.32 210.51 489.09C221.89 496.43 235.29 500.22 250.73 500.46C266.18 500.69 279.7 496.78 291.32 488.74C312.15 475.91 322.69 456.2 322.93 429.61C323.17 403.01 312.75 381.98 291.68 366.51C291.68 366.51 291.68 366.51 291.68 366.51C291.68 176.41 291.68 70.8 291.68 49.67C289.4 23.44 275.76 10.26 250.73 10.13Z" id="a11uTn7vLk"></path><path d="M250.73 10.13C225.72 10.02 212.18 23.26 210.14 49.85C210.1 81.51 209.77 334.79 209.73 366.44C187.74 382.65 176.74 403.71 176.74 429.61C176.74 455.49 188 475.32 210.51 489.09C221.89 496.43 235.29 500.22 250.73 500.46C266.18 500.69 279.7 496.78 291.32 488.74C312.15 475.91 322.69 456.2 322.93 429.61C323.17 403.01 312.75 381.98 291.68 366.51C291.68 366.51 291.68 366.51 291.68 366.51C291.68 176.41 291.68 70.8 291.68 49.67C289.4 23.44 275.76 10.26 250.73 10.13Z" id="f1Xjb18SmK"></path><path d="M249.38 372.19C249.38 372.19 249.38 372.19 249.38 372.19C264.93 372.19 279.85 378.21 290.84 388.92C301.84 399.63 308.01 414.16 308.01 429.31C308.01 429.31 308.01 429.31 308.01 429.31C308.01 460.86 281.76 486.43 249.38 486.43C249.38 486.43 249.38 486.43 249.38 486.43C217 486.43 190.75 460.86 190.75 429.31C190.75 429.31 190.75 429.31 190.75 429.31C190.75 397.76 217 372.19 249.38 372.19ZM249.38 372.19L249.38 486.43M190.75 429.31L308.01 429.31" id="e4CZPKxM5n"></path><path d="M250.83 372.19C250.83 372.19 250.83 372.19 250.83 372.19C266.38 372.19 281.3 378.21 292.29 388.92C303.29 399.63 309.46 414.16 309.46 429.31C309.46 429.31 309.46 429.31 309.46 429.31C309.46 460.86 283.21 486.43 250.83 486.43C250.83 486.43 250.83 486.43 250.83 486.43C218.45 486.43 192.2 460.86 192.2 429.31C192.2 429.31 192.2 429.31 192.2 429.31C192.2 397.76 218.45 372.19 250.83 372.19ZM250.83 372.19L250.83 486.43M192.2 429.31L309.46 429.31" id="bLDYzXfZK"></path><path d="M274.08 300.3C274.08 347.93 274.08 374.39 274.08 379.68C274.08 379.68 274.08 379.68 274.08 379.68C246.18 379.68 230.68 379.68 227.58 379.68C227.58 379.68 227.58 379.68 227.58 379.68C227.58 332.05 227.58 305.59 227.58 300.3C227.58 300.3 227.58 300.3 227.58 300.3C255.48 300.3 270.98 300.3 274.08 300.3C274.08 300.3 274.08 300.3 274.08 300.3Z" id="bfa3ZGJ1Q"></path><path d="M274.08 300.3C274.08 347.93 274.08 374.39 274.08 379.68C274.08 379.68 274.08 379.68 274.08 379.68C246.18 379.68 230.68 379.68 227.58 379.68C227.58 379.68 227.58 379.68 227.58 379.68C227.58 332.05 227.58 305.59 227.58 300.3C227.58 300.3 227.58 300.3 227.58 300.3C255.48 300.3 270.98 300.3 274.08 300.3C274.08 300.3 274.08 300.3 274.08 300.3Z" id="a11796rVJ7"></path><path d="M243.72 268.78C243.72 271.43 243.72 272.9 243.72 273.19C243.72 273.19 243.72 273.19 243.72 273.19C225.52 273.19 215.41 273.19 213.4 273.19C213.4 273.19 213.4 273.19 213.4 273.19C213.4 270.55 213.4 269.08 213.4 268.78C213.4 268.78 213.4 268.78 213.4 268.78C231.59 268.78 241.69 268.78 243.72 268.78C243.72 268.78 243.72 268.78 243.72 268.78Z" id="c1Q7BQC8s"></path><path d="M243.72 268.78C243.72 271.43 243.72 272.9 243.72 273.19C243.72 273.19 243.72 273.19 243.72 273.19C225.52 273.19 215.41 273.19 213.4 273.19C213.4 273.19 213.4 273.19 213.4 273.19C213.4 270.55 213.4 269.08 213.4 268.78C213.4 268.78 213.4 268.78 213.4 268.78C231.59 268.78 241.69 268.78 243.72 268.78C243.72 268.78 243.72 268.78 243.72 268.78Z" id="h6U7lgFDNV"></path><path d="M243.72 219.54C243.72 222.19 243.72 223.66 243.72 223.95C243.72 223.95 243.72 223.95 243.72 223.95C225.52 223.95 215.41 223.95 213.4 223.95C213.4 223.95 213.4 223.95 213.4 223.95C213.4 221.31 213.4 219.84 213.4 219.54C213.4 219.54 213.4 219.54 213.4 219.54C231.59 219.54 241.69 219.54 243.72 219.54C243.72 219.54 243.72 219.54 243.72 219.54Z" id="b2jgZguK1"></path><path d="M243.72 219.54C243.72 222.19 243.72 223.66 243.72 223.95C243.72 223.95 243.72 223.95 243.72 223.95C225.52 223.95 215.41 223.95 213.4 223.95C213.4 223.95 213.4 223.95 213.4 223.95C213.4 221.31 213.4 219.84 213.4 219.54C213.4 219.54 213.4 219.54 213.4 219.54C231.59 219.54 241.69 219.54 243.72 219.54C243.72 219.54 243.72 219.54 243.72 219.54Z" id="cq3LVeKF"></path><path d="M243.72 170.31C243.72 172.95 243.72 174.42 243.72 174.71C243.72 174.71 243.72 174.71 243.72 174.71C225.52 174.71 215.41 174.71 213.4 174.71C213.4 174.71 213.4 174.71 213.4 174.71C213.4 172.07 213.4 170.6 213.4 170.31C213.4 170.31 213.4 170.31 213.4 170.31C231.59 170.31 241.69 170.31 243.72 170.31C243.72 170.31 243.72 170.31 243.72 170.31Z" id="aNrkQd2Pt"></path><path d="M243.72 170.31C243.72 172.95 243.72 174.42 243.72 174.71C243.72 174.71 243.72 174.71 243.72 174.71C225.52 174.71 215.41 174.71 213.4 174.71C213.4 174.71 213.4 174.71 213.4 174.71C213.4 172.07 213.4 170.6 213.4 170.31C213.4 170.31 213.4 170.31 213.4 170.31C231.59 170.31 241.69 170.31 243.72 170.31C243.72 170.31 243.72 170.31 243.72 170.31Z" id="b5pPmGhKdW"></path><path d="M243.72 121.06C243.72 123.7 243.72 125.17 243.72 125.47C243.72 125.47 243.72 125.47 243.72 125.47C225.52 125.47 215.41 125.47 213.4 125.47C213.4 125.47 213.4 125.47 213.4 125.47C213.4 122.82 213.4 121.35 213.4 121.06C213.4 121.06 213.4 121.06 213.4 121.06C231.59 121.06 241.69 121.06 243.72 121.06C243.72 121.06 243.72 121.06 243.72 121.06Z" id="aVjHdZEwk"></path><path d="M243.72 121.06C243.72 123.7 243.72 125.17 243.72 125.47C243.72 125.47 243.72 125.47 243.72 125.47C225.52 125.47 215.41 125.47 213.4 125.47C213.4 125.47 213.4 125.47 213.4 125.47C213.4 122.82 213.4 121.35 213.4 121.06C213.4 121.06 213.4 121.06 213.4 121.06C231.59 121.06 241.69 121.06 243.72 121.06C243.72 121.06 243.72 121.06 243.72 121.06Z" id="a24usrgKhc"></path><path d="M243.72 71.82C243.72 74.46 243.72 75.93 243.72 76.23C243.72 76.23 243.72 76.23 243.72 76.23C225.52 76.23 215.41 76.23 213.4 76.23C213.4 76.23 213.4 76.23 213.4 76.23C213.4 73.58 213.4 72.11 213.4 71.82C213.4 71.82 213.4 71.82 213.4 71.82C231.59 71.82 241.69 71.82 243.72 71.82C243.72 71.82 243.72 71.82 243.72 71.82Z" id="d2HcpJ3V4w"></path><path d="M243.72 71.82C243.72 74.46 243.72 75.93 243.72 76.23C243.72 76.23 243.72 76.23 243.72 76.23C225.52 76.23 215.41 76.23 213.4 76.23C213.4 76.23 213.4 76.23 213.4 76.23C213.4 73.58 213.4 72.11 213.4 71.82C213.4 71.82 213.4 71.82 213.4 71.82C231.59 71.82 241.69 71.82 243.72 71.82C243.72 71.82 243.72 71.82 243.72 71.82Z" id="jq69OcJs5"></path><path d="M228.55 244.16C228.55 246.81 228.55 248.28 228.55 248.57C228.55 248.57 228.55 248.57 228.55 248.57C219.45 248.57 214.4 248.57 213.4 248.57C213.4 248.57 213.4 248.57 213.4 248.57C213.4 245.93 213.4 244.46 213.4 244.16C213.4 244.16 213.4 244.16 213.4 244.16C222.49 244.16 227.54 244.16 228.55 244.16C228.55 244.16 228.55 244.16 228.55 244.16Z" id="cZsYgTSSH"></path><path d="M228.55 244.16C228.55 246.81 228.55 248.28 228.55 248.57C228.55 248.57 228.55 248.57 228.55 248.57C219.45 248.57 214.4 248.57 213.4 248.57C213.4 248.57 213.4 248.57 213.4 248.57C213.4 245.93 213.4 244.46 213.4 244.16C213.4 244.16 213.4 244.16 213.4 244.16C222.49 244.16 227.54 244.16 228.55 244.16C228.55 244.16 228.55 244.16 228.55 244.16Z" id="cm9afegHd"></path><path d="M228.55 194.92C228.55 197.57 228.55 199.04 228.55 199.33C228.55 199.33 228.55 199.33 228.55 199.33C219.45 199.33 214.4 199.33 213.4 199.33C213.4 199.33 213.4 199.33 213.4 199.33C213.4 196.69 213.4 195.22 213.4 194.92C213.4 194.92 213.4 194.92 213.4 194.92C222.49 194.92 227.54 194.92 228.55 194.92C228.55 194.92 228.55 194.92 228.55 194.92Z" id="a3Qek11dTy"></path><path d="M228.55 194.92C228.55 197.57 228.55 199.04 228.55 199.33C228.55 199.33 228.55 199.33 228.55 199.33C219.45 199.33 214.4 199.33 213.4 199.33C213.4 199.33 213.4 199.33 213.4 199.33C213.4 196.69 213.4 195.22 213.4 194.92C213.4 194.92 213.4 194.92 213.4 194.92C222.49 194.92 227.54 194.92 228.55 194.92C228.55 194.92 228.55 194.92 228.55 194.92Z" id="eFapX9vpL"></path><path d="M228.55 145.68C228.55 148.32 228.55 149.79 228.55 150.1C228.55 150.1 228.55 150.1 228.55 150.1C219.45 150.1 214.4 150.1 213.4 150.1C213.4 150.1 213.4 150.1 213.4 150.1C213.4 147.44 213.4 145.97 213.4 145.68C213.4 145.68 213.4 145.68 213.4 145.68C222.49 145.68 227.54 145.68 228.55 145.68C228.55 145.68 228.55 145.68 228.55 145.68Z" id="bcJGFbjJz"></path><path d="M228.55 145.68C228.55 148.32 228.55 149.79 228.55 150.1C228.55 150.1 228.55 150.1 228.55 150.1C219.45 150.1 214.4 150.1 213.4 150.1C213.4 150.1 213.4 150.1 213.4 150.1C213.4 147.44 213.4 145.97 213.4 145.68C213.4 145.68 213.4 145.68 213.4 145.68C222.49 145.68 227.54 145.68 228.55 145.68C228.55 145.68 228.55 145.68 228.55 145.68Z" id="cJSan5phf"></path><path d="M228.55 96.44C228.55 99.08 228.55 100.55 228.55 100.85C228.55 100.85 228.55 100.85 228.55 100.85C219.45 100.85 214.4 100.85 213.4 100.85C213.4 100.85 213.4 100.85 213.4 100.85C213.4 98.2 213.4 96.73 213.4 96.44C213.4 96.44 213.4 96.44 213.4 96.44C222.49 96.44 227.54 96.44 228.55 96.44C228.55 96.44 228.55 96.44 228.55 96.44Z" id="bSMfkMFVZ"></path><path d="M228.55 96.44C228.55 99.08 228.55 100.55 228.55 100.85C228.55 100.85 228.55 100.85 228.55 100.85C219.45 100.85 214.4 100.85 213.4 100.85C213.4 100.85 213.4 100.85 213.4 100.85C213.4 98.2 213.4 96.73 213.4 96.44C213.4 96.44 213.4 96.44 213.4 96.44C222.49 96.44 227.54 96.44 228.55 96.44C228.55 96.44 228.55 96.44 228.55 96.44Z" id="b1N6VuHwR5"></path></defs><g><g><g><use xlink:href="#b2GXPY1Cv" opacity="1" fill="#000000" fill-opacity="0"></use><g><use xlink:href="#b2GXPY1Cv" opacity="1" fill-opacity="0" stroke="#000000" stroke-width="1" stroke-opacity="0"></use></g></g><g><use xlink:href="#a4yhuxjGUW" opacity="1" fill="#000000" fill-opacity="0"></use><g><use xlink:href="#a4yhuxjGUW" opacity="1" fill-opacity="0" stroke="#000000" stroke-width="1" stroke-opacity="0"></use></g></g><g><use xlink:href="#a11uTn7vLk" opacity="1" fill="#000000" fill-opacity="0"></use><g><use xlink:href="#a11uTn7vLk" opacity="1" fill-opacity="0" stroke="#000000" stroke-width="1" stroke-opacity="0"></use></g></g><g><use xlink:href="#f1Xjb18SmK" opacity="1" fill="#000000" fill-opacity="0"></use><g><use xlink:href="#f1Xjb18SmK" opacity="1" fill-opacity="0" stroke="#000000" stroke-width="7.2" stroke-opacity="1"></use></g></g><g><use xlink:href="#e4CZPKxM5n" opacity="1" fill="#000000" fill-opacity="1"></use><g><use xlink:href="#e4CZPKxM5n" opacity="1" fill-opacity="0" stroke="#000000" stroke-width="1" stroke-opacity="0"></use></g></g><g><use xlink:href="#bLDYzXfZK" opacity="1" fill="#000000" fill-opacity="0"></use><g><use xlink:href="#bLDYzXfZK" opacity="1" fill-opacity="0" stroke="#000000" stroke-width="7.2" stroke-opacity="1"></use></g></g><g><use xlink:href="#bfa3ZGJ1Q" opacity="1" fill="#000000" fill-opacity="1"></use><g><use xlink:href="#bfa3ZGJ1Q" opacity="1" fill-opacity="0" stroke="#000000" stroke-width="1" stroke-opacity="0"></use></g></g><g><use xlink:href="#a11796rVJ7" opacity="1" fill="#000000" fill-opacity="0"></use><g><use xlink:href="#a11796rVJ7" opacity="1" fill-opacity="0" stroke="#000000" stroke-width="7.2" stroke-opacity="1"></use></g></g><g><use xlink:href="#c1Q7BQC8s" opacity="1" fill="#000000" fill-opacity="1"></use><g><use xlink:href="#c1Q7BQC8s" opacity="1" fill-opacity="0" stroke="#000000" stroke-width="1" stroke-opacity="0"></use></g></g><g><use xlink:href="#h6U7lgFDNV" opacity="1" fill="#000000" fill-opacity="0"></use><g><use xlink:href="#h6U7lgFDNV" opacity="1" fill-opacity="0" stroke="#000000" stroke-width="7.2" stroke-opacity="1"></use></g></g><g><use xlink:href="#b2jgZguK1" opacity="1" fill="#000000" fill-opacity="1"></use><g><use xlink:href="#b2jgZguK1" opacity="1" fill-opacity="0" stroke="#000000" stroke-width="1" stroke-opacity="0"></use></g></g><g><use xlink:href="#cq3LVeKF" opacity="1" fill="#000000" fill-opacity="0"></use><g><use xlink:href="#cq3LVeKF" opacity="1" fill-opacity="0" stroke="#000000" stroke-width="7.2" stroke-opacity="1"></use></g></g><g><use xlink:href="#aNrkQd2Pt" opacity="1" fill="#000000" fill-opacity="1"></use><g><use xlink:href="#aNrkQd2Pt" opacity="1" fill-opacity="0" stroke="#000000" stroke-width="1" stroke-opacity="0"></use></g></g><g><use xlink:href="#b5pPmGhKdW" opacity="1" fill="#000000" fill-opacity="0"></use><g><use xlink:href="#b5pPmGhKdW" opacity="1" fill-opacity="0" stroke="#000000" stroke-width="7.2" stroke-opacity="1"></use></g></g><g><use xlink:href="#aVjHdZEwk" opacity="1" fill="#000000" fill-opacity="1"></use><g><use xlink:href="#aVjHdZEwk" opacity="1" fill-opacity="0" stroke="#000000" stroke-width="1" stroke-opacity="0"></use></g></g><g><use xlink:href="#a24usrgKhc" opacity="1" fill="#000000" fill-opacity="0"></use><g><use xlink:href="#a24usrgKhc" opacity="1" fill-opacity="0" stroke="#000000" stroke-width="7.2" stroke-opacity="1"></use></g></g><g><use xlink:href="#d2HcpJ3V4w" opacity="1" fill="#000000" fill-opacity="1"></use><g><use xlink:href="#d2HcpJ3V4w" opacity="1" fill-opacity="0" stroke="#000000" stroke-width="1" stroke-opacity="0"></use></g></g><g><use xlink:href="#jq69OcJs5" opacity="1" fill="#000000" fill-opacity="0"></use><g><use xlink:href="#jq69OcJs5" opacity="1" fill-opacity="0" stroke="#000000" stroke-width="7.2" stroke-opacity="1"></use></g></g><g><use xlink:href="#cZsYgTSSH" opacity="1" fill="#000000" fill-opacity="1"></use><g><use xlink:href="#cZsYgTSSH" opacity="1" fill-opacity="0" stroke="#000000" stroke-width="1" stroke-opacity="0"></use></g></g><g><use xlink:href="#cm9afegHd" opacity="1" fill="#000000" fill-opacity="0"></use><g><use xlink:href="#cm9afegHd" opacity="1" fill-opacity="0" stroke="#000000" stroke-width="7.2" stroke-opacity="1"></use></g></g><g><use xlink:href="#a3Qek11dTy" opacity="1" fill="#000000" fill-opacity="1"></use><g><use xlink:href="#a3Qek11dTy" opacity="1" fill-opacity="0" stroke="#000000" stroke-width="1" stroke-opacity="0"></use></g></g><g><use xlink:href="#eFapX9vpL" opacity="1" fill="#000000" fill-opacity="0"></use><g><use xlink:href="#eFapX9vpL" opacity="1" fill-opacity="0" stroke="#000000" stroke-width="7.2" stroke-opacity="1"></use></g></g><g><use xlink:href="#bcJGFbjJz" opacity="1" fill="#000000" fill-opacity="1"></use><g><use xlink:href="#bcJGFbjJz" opacity="1" fill-opacity="0" stroke="#000000" stroke-width="1" stroke-opacity="0"></use></g></g><g><use xlink:href="#cJSan5phf" opacity="1" fill="#000000" fill-opacity="0"></use><g><use xlink:href="#cJSan5phf" opacity="1" fill-opacity="0" stroke="#000000" stroke-width="7.2" stroke-opacity="1"></use></g></g><g><use xlink:href="#bSMfkMFVZ" opacity="1" fill="#000000" fill-opacity="1"></use><g><use xlink:href="#bSMfkMFVZ" opacity="1" fill-opacity="0" stroke="#000000" stroke-width="1" stroke-opacity="0"></use></g></g><g><use xlink:href="#b1N6VuHwR5" opacity="1" fill="#000000" fill-opacity="0"></use><g><use xlink:href="#b1N6VuHwR5" opacity="1" fill-opacity="0" stroke="#000000" stroke-width="7.2" stroke-opacity="1"></use></g></g></g></g></svg>