<?xml version="1.0" standalone="no"?>
<!DOCTYPE svg PUBLIC "-//W3C//DTD SVG 20010904//EN" "http://www.w3.org/TR/2001/REC-SVG-20010904/DTD/svg10.dtd">
<!-- Created using Krita: https://krita.org -->
<svg xmlns="http://www.w3.org/2000/svg" 
    xmlns:xlink="http://www.w3.org/1999/xlink"
    xmlns:krita="http://krita.org/namespaces/svg/krita"
    xmlns:sodipodi="http://sodipodi.sourceforge.net/DTD/sodipodi-0.dtd"
    width="368.64pt"
    height="368.64pt"
    viewBox="0 0 368.64 368.64">
<defs/>
<path id="shape0" transform="matrix(0.999999960263572 0 0 0.999999960263572 48.5999980269838 209.159991508723)" fill="none" stroke="#000000" stroke-width="7.2" stroke-linecap="square" stroke-linejoin="bevel" d="M50.76 35.28L147.6 35.64L171 0L299.88 2.84217e-14L229.32 129.6L0 129.96C0 129.96 16.92 98.4 50.76 35.28Z"/><path id="shape1" transform="matrix(0.999999960263572 0 0 0.999999960263572 16.5492878162467 125.279999202154)" fill="none" stroke="#000000" stroke-width="7.2" stroke-linecap="square" stroke-linejoin="bevel" d="M51.1307 0.72L15.1307 0C6.34189 0.81118 -0.303753 3.76554 0.0107121 13.68L1.18071 200.7C1.16757 208.988 2.96757 212.708 6.58071 211.86C9.34071 214.08 18.0407 214.68 32.6807 213.66L51.6724 179.172C51.6724 179.172 51.4918 119.688 51.1307 0.72Z"/><path id="shape2" transform="matrix(0.999999960263572 0 0 0.999999960263572 67.1671262018862 30.0378954185433)" fill="none" stroke="#000000" stroke-width="7.2" stroke-linecap="square" stroke-linejoin="bevel" d="M0.0363009 96.7322L0.545418 1.01823L134.952 0L178.736 46.8388L178.353 175.882L178.227 179.209L152.253 179.122L128.943 214.582L33.2729 214.402L1.18181 274.414C0.255854 274.006 -0.125983 214.779 0.0363009 96.7322Z"/><path id="shape3" transform="matrix(0.999999960263572 0 0 0.999999960263572 245.475002998431 124.920002632048)" fill="none" stroke="#000000" stroke-width="7.2" stroke-linecap="square" stroke-linejoin="bevel" d="M0.0450022 0L35.3029 0.0681828L35.0484 84.0725L0 84.105C0 84.105 0.0150007 56.07 0.0450022 0Z"/>
</svg>
